PathFileType	4	(X/Y/Z)	6_2_53_p0_0-602.trc
DataRate	CameraRate	NumFrames	NumMarkers	Units	OrigDataRate	OrigDataStartFrame	OrigNumFrames
59.0	59.0	6	27	m	59.0	452	603
Frame#	Time	RHip			RKnee			RAnkle			RBigToe			RSmallToe			RHeel			LHip			LKnee			LAnkle			LBigToe			LSmallToe			LHeel			Neck			Head			Nose			RShoulder			RElbow			RWrist			RThumb			RIndex			RPinky			LShoulder			LElbow			LWrist			LThumb			LIndex			LPinky			
		X1	Y1	Z1	X2	Y2	Z2	X3	Y3	Z3	X4	Y4	Z4	X5	Y5	Z5	X6	Y6	Z6	X7	Y7	Z7	X8	Y8	Z8	X9	Y9	Z9	X10	Y10	Z10	X11	Y11	Z11	X12	Y12	Z12	X13	Y13	Z13	X14	Y14	Z14	X15	Y15	Z15	X16	Y16	Z16	X17	Y17	Z17	X18	Y18	Z18	X19	Y19	Z19	X20	Y20	Z20	X21	Y21	Z21	X22	Y22	Z22	X23	Y23	Z23	X24	Y24	Z24	X25	Y25	Z25	X26	Y26	Z26	X27	Y27	Z27	
452	7.661016949152542	0.23116656805817468	0.441395716981157	0.6559153873320209	0.24128776279961886	0.48099941412141034	1.0880433896296018	0.25648236113475553	0.5658031736185362	1.491650413425139	0.26507657771748583	0.3276907605995154	1.4833369438529846	0.3183829844462353	0.3844066942597047	1.5011122883332393	0.25433810916383476	0.615784291151701	1.5713674419701242	0.020968737056666915	0.43307367195725543	0.684826266522405	0.0580685055476064	0.4584022351155262	1.082140013712039	0.1251720277011848	0.5628162671212696	1.5212674273282838	0.10845733773268465	0.36929504391463763	1.5186648972496497	0.062024778840063056	0.40465649420119437	1.5160204056823037	0.1339776559453478	0.6075164368163009	1.5849706784532485	0.07015777394490944	0.4647366242652223	0.09823991724020453	0.03336884475884687	0.3569910347963627	-0.14012752145764348	0.04663381671217068	0.33248183911264	-0.010668790526803452	0.22901894587751487	0.4959249817498424	0.14173858909455803	0.3247447430214539	0.5881799905606768	0.3876148437461233	0.24592697071153974	0.40371844915314403	0.3976097122933047	0.16134155626609228	0.2924659961454459	0.4155666658500245	0.1636958146848942	0.26917818315664765	0.42843228410593776	0.2073310949690673	0.30009637449305454	0.4747972106083766	-0.0685089897332772	0.5004110365738288	0.18200053447720274	-0.13376804712707305	0.5773739375368897	0.41585818986721623	-0.03735029000747169	0.32692904868083045	0.40302734446318045	0.02455443765542478	0.23857210624228356	0.37840739339580753	0.0173147005915501	0.2235802653125893	0.3984464489509547	0.0015705322728135575	0.2298122602474883	0.4525784336895946
453	7.677966101694915	0.2311441088070793	0.4414596576533649	0.6558808380249314	0.24125521866389024	0.480531937843107	1.0878137470637983	0.2563773957884849	0.5654801177292856	1.4914432279653738	0.2650409376410381	0.32750825254035487	1.4832248235372831	0.31814563083979797	0.38394169727083294	1.5008798155699545	0.254862435979738	0.6178159984413414	1.582262807371432	0.020891872768506965	0.4331242570047506	0.6848356446876774	0.05801469174112473	0.4584455650624221	1.082084012196708	0.12515458161826784	0.56270111823254	1.5212286482068378	0.10926214488349303	0.36746325073678443	1.5224264481740823	0.062097150189501175	0.40457756491576685	1.5160494164864284	0.13107482465169928	0.5952617404743018	1.578067356902561	0.0697807259010491	0.46540904847396647	0.09135397245522547	0.03307401556952489	0.3566198226303614	-0.14674142806854232	0.046772619626173254	0.33251003178161254	-0.01078342989355416	0.2290293607445483	0.4961177138308283	0.14184014312492868	0.3247033946689477	0.5882672257301156	0.38761306504548426	0.24598045850326336	0.40384829034283737	0.39767094495274496	0.1650865459333798	0.3018464982007532	0.4214395846005184	0.16634526672991082	0.280655398118526	0.4341540491771023	0.20278376627001876	0.3133442200674568	0.4788310483207334	-0.06879488754416602	0.5009725842005768	0.17846167077062694	-0.1338059395788729	0.5774423536674801	0.4155332560069412	-0.033328549256328784	0.3298375882668926	0.40339497539677865	0.029488711065185653	0.24158368214216278	0.387171517911524	0.020721556652811474	0.2254107859457317	0.3986689108051925	0.005693869455196955	0.2307490505211854	0.4526516560475345
454	7.694915254237288	0.23119968772004273	0.44155385888425436	0.6557859350716148	0.24129307952147402	0.48084811877085104	1.0879521823193712	0.2563766648640169	0.5653702993037363	1.491328423960846	0.26847269859574396	0.3401259838967776	1.4903497502095384	0.31821562908759654	0.3844412709584731	1.5011009260463357	0.25405753282915966	0.614731990428386	1.570681699664461	0.02019086971886828	0.4316484900543954	0.6801622856793261	0.05800582678293492	0.45851526738418014	1.08226622395621	0.1251787010309478	0.5626101956308003	1.5210017539550846	0.11201455902730287	0.3803403741778783	1.529836608011841	0.06282910381720934	0.4030231680614941	1.5197776361820816	0.13105913384363552	0.5950881145897987	1.5780788572110007	0.06978445018980788	0.4653229921788383	0.09495049303971753	0.03925317990126944	0.36999141614346476	-0.14687262333639092	0.04662936260243664	0.33309360129754206	-0.014257853313138292	0.22495147905660276	0.5096231264644819	0.1439891813904918	0.3246049355069704	0.5886288668234317	0.3875537706871666	0.25006862444590955	0.3908246086338085	0.3944630085628042	0.1644608171634695	0.3026430301964163	0.42196287306516145	0.1660248909684481	0.2809690298784348	0.43769992078973874	0.20286150389864024	0.31341983749580266	0.47887793123250794	-0.06875927170022653	0.500737355494738	0.17835822200667328	-0.13240634322492617	0.5891765784846985	0.41446235371459367	-0.03338578097277286	0.3302085849959314	0.4037012542867379	0.030267038440300455	0.24280781435290053	0.39240629373418817	0.02139763251866496	0.22647212193699112	0.40318049952480745	0.013551871154470856	0.2331478194223437	0.4528556251774053
455	7.711864406779661	0.23070046767413427	0.44212427927379194	0.6525442282797962	0.24120226408410672	0.4807224743258319	1.0878542500950015	0.2564376122562031	0.5656219985931094	1.4914920060703	0.2684785797614469	0.3402225019374937	1.4903402018247787	0.3181908369370177	0.38451013450472626	1.5010983003787501	0.2534605032052347	0.6159581751410799	1.5761242569000542	0.020857153170859448	0.432546874865165	0.6847271977129885	0.05908686135595359	0.4602390675074106	1.0873743895225645	0.12520796833371906	0.5626183927958758	1.5211199598672203	0.1121126454200777	0.38048796028763876	1.5299975775904333	0.06285404533514106	0.40305275564133003	1.5199184792036253	0.13108298967699614	0.5950336997854655	1.578112151537377	0.069889744528592	0.465141419678019	0.09481805352225119	0.039382756501317784	0.36986862265315157	-0.14692062401225148	0.04674085858280628	0.33320894263012973	-0.014327428549426414	0.22908994231135024	0.4963590328569716	0.14198678520534924	0.32523218183186786	0.5898377442292342	0.3911519874440867	0.25007831121176577	0.39043565239512595	0.39456852839500034	0.16274503021423145	0.2927102195425252	0.42217500402346436	0.16631143552226138	0.28178198705562485	0.43493862476964	0.1980022669967411	0.3261924487220378	0.4827314940989291	-0.06878302929812269	0.5006623629860649	0.17835609103906444	-0.1357599565330589	0.5642456553993979	0.4130466070794705	-0.03266880966310709	0.33087130934810177	0.4073938018805959	0.030559346214225652	0.24320013767273368	0.39184367771358375	0.020859594664120015	0.22566879021231054	0.402589665256931	0.01858769181458504	0.22218864355065043	0.450249261433933
456	7.728813559322034	0.22748330825219623	0.4412466854486681	0.6566887617209307	0.24140720040613087	0.4807842849493981	1.0879289683705196	0.25631546552711587	0.5938097089617738	1.5119223274840643	0.26860702556669	0.3404673757411981	1.4904704250708185	0.322123204315071	0.3971782416130257	1.5081589368264339	0.2533551777820209	0.6168572748657186	1.5766556141229935	0.020049607224769887	0.43254412085290395	0.6726145408275437	0.05805397887734958	0.458365422559591	1.0821321210552368	0.1244666506264592	0.5629687262516729	1.5267636667228008	0.11167552496787514	0.3672193147358339	1.517018867075793	0.062139451162244605	0.4048314836292847	1.5156043568661857	0.13401453991853238	0.607575081561331	1.584670734118366	0.06988230170012105	0.46519103124075034	0.09475065442415768	0.044040149556180845	0.3581886565949774	-0.1475916591568319	0.046728596370819594	0.3334221748133518	-0.014360866465011505	0.22911482419903834	0.4962372841658378	0.1420152880510002	0.3252830862703746	0.5898008805409491	0.39110410652638006	0.2507155581138505	0.3915250566777355	0.39847262781533876	0.15815173925655168	0.30353724981133673	0.41813786537099046	0.16382471854141226	0.26982932590388575	0.43204841376549785	0.1935287928995739	0.33803281427633053	0.4861518653022479	-0.06889119758876812	0.5010373926025817	0.17468976761446606	-0.13431042248004327	0.5759694027182587	0.4114697454867859	-0.027909228714554788	0.31770102165303676	0.40026956765314514	0.030580642372454402	0.2423278851438227	0.39503621416296164	0.02647645423225111	0.21545944735353004	0.404180104398939	0.018835616541515946	0.22198809746912948	0.45019421260357234
457	7.745762711864407	0.22745055674383452	0.4410655816029375	0.6567147108078472	0.24134357559174993	0.4809593742269162	1.0880327407020327	0.26095567356184124	0.5783062325990329	1.5026485509710017	0.26857163320234984	0.3404882264404247	1.490528147716529	0.32205183598008513	0.3970674229269894	1.5081770798634397	0.25344537856001864	0.6165375121450973	1.5764767336377818	0.02035499533898622	0.43349047038562677	0.6810871916426238	0.058065691401065635	0.458434532878194	1.0823589396740474	0.12447358549282982	0.5628665864981187	1.5268954650044335	0.10593688639396635	0.381512227432836	1.5307321150090676	0.062119996442545955	0.404816478768084	1.515909079859303	0.13403015983673172	0.6074590010921682	1.5846072900953776	0.06990138031784293	0.4653847310523927	0.09122092367462614	0.04676253879497022	0.36938881647849825	-0.14759962262062679	0.050463786757418944	0.3342120131816882	-0.017692921475648608	0.22913952950377547	0.49625689185598815	0.14205199878487335	0.3244988725572946	0.5882178522671203	0.3872706644151397	0.25065124719113013	0.3912384733551996	0.39850179033442157	0.1589754890511426	0.2820865966346585	0.4119040696441128	0.16138831028092693	0.2574046164134979	0.4260533509659384	0.19086443771188788	0.33675378185761745	0.4937568995516241	-0.0688867534342893	0.5010615056012763	0.1746182471492629	-0.13041152217429036	0.5490697137469277	0.40597919445486425	-0.023964355267147294	0.3203658654802358	0.4006445129437085	0.0339491642712282	0.2545640273735947	0.39855015355295953	0.02667727770128856	0.21544621018186963	0.4045235962417866	0.022682300048930334	0.22357866911141955	0.45068922711548076
